<svg xmlns="http://www.w3.org/2000/svg" width="560" height="520" viewBox="0 0 560 520" shape-rendering="crispEdges">
  <g stroke="#263238" stroke-width="10" stroke-linejoin="round" stroke-linecap="square">
    <g transform="translate(46 26)">
      <path d="M58 135l-30 111 45 24 20-83" fill="#f3d2b3"/>
      <path d="M168 136l37 90-43 22-30-70" fill="#f3d2b3"/>
      <path d="M52 151q58-44 116 0l-9 177H64z" fill="#f4f1e8"/>
      <path d="M82 325l-11 139h55l7-139M135 325l12 139h55l-29-139" fill="#355376"/>
      <path d="M88 461h42v34H67q-7-24 21-34M151 461h45q25 12 13 34h-61z" fill="#f2f1ea"/>
      <circle cx="112" cy="93" r="65" fill="#f3d2b3"/>
      <path d="M49 92Q54 24 116 22q66 3 65 72l-26-25-36 8-31-20z" fill="#2c292a"/>
      <rect x="94" y="104" width="10" height="10" fill="#263238" stroke="none"/>
      <rect x="134" y="104" width="10" height="10" fill="#263238" stroke="none"/>
      <path d="M106 130q18 15 35 0" fill="none" stroke-width="6"/>
      <path d="M50 151L22 311M169 151l18 94" fill="none"/>
      <rect x="2" y="292" width="76" height="95" rx="8" fill="#174e4a"/>
      <path d="M76 148l40 71 38-71" fill="none" stroke="#174e4a" stroke-width="13"/>
      <path d="M171 218l67-42" fill="none"/>
      <rect x="205" y="144" width="85" height="66" fill="#fff7d3"/>
      <path d="M219 160h56M219 177h42M219 193h50" stroke="#d36e48" stroke-width="6"/>
    </g>
    <g transform="translate(294 52)">
      <path d="M46 147l-28 104 42 25 30-93M167 149l23 93-43 14-26-74" fill="#efc9aa"/>
      <path d="M46 151q59-39 120 0l-10 171H58z" fill="#70a796"/>
      <path d="M75 319l-7 137h50l10-137M131 319l9 137h51l-25-137" fill="#303c4a"/>
      <path d="M82 452h39v34H58q-4-24 24-34M148 452h38q27 13 15 34h-57z" fill="#efeee8"/>
      <circle cx="107" cy="94" r="62" fill="#efc9aa"/>
      <path d="M48 93Q54 27 110 23q62 2 62 72l-32-21-30 2-30-19z" fill="#3b2a2b"/>
      <rect x="87" y="105" width="10" height="10" fill="#263238" stroke="none"/>
      <rect x="127" y="105" width="10" height="10" fill="#263238" stroke="none"/>
      <path d="M95 131q17 14 34 0" fill="none" stroke-width="6"/>
      <path d="M48 151l-26 156M165 153l29 108" fill="none"/>
      <path d="M75 153l36 61 30-61" fill="none" stroke="#f5ecdb" stroke-width="11"/>
      <rect x="0" y="290" width="70" height="82" rx="8" fill="#c7a15d"/>
    </g>
  </g>
</svg>
